<?xml version="1.0" encoding="utf-8"?>
<!-- Generator: Adobe Illustrator 22.1.0, SVG Export Plug-In . SVG Version: 6.00 Build 0)  -->
<svg version="1.1" id="Layer_1" xmlns="http://www.w3.org/2000/svg" xmlns:xlink="http://www.w3.org/1999/xlink" x="0px" y="0px"
	 viewBox="0 0 144.5 37" style="enable-background:new 0 0 144.5 37;" xml:space="preserve">
<style type="text/css">
	.st0{fill:#010021;}
	.st1{opacity:0.8;fill:#51B74A;}
	.st2{opacity:0.58;fill:#008CC1;}
	.st3{fill:none;stroke:#000000;stroke-miterlimit:10;}
</style>
<g>
	<g>
		<path class="st0" d="M63.2,16.9l6.6-6.8h-4.6l-6.9,7.3V9.9h-3.8v16.9h3.8V22l2.3-2.4l5,7.2H70L63.2,16.9z"/>
		<path class="st0" d="M74.9,23c0.9,0.7,1.9,1.1,3.1,1.1c0.9,0,1.8-0.2,2.4-0.5c0.7-0.3,1.4-0.8,2-1.5l2.2,2
			C84,25,83,25.7,81.9,26.3c-1.1,0.6-2.4,0.8-3.9,0.8c-1.2,0-2.3-0.2-3.3-0.6c-1-0.4-1.9-1-2.7-1.8c-0.8-0.8-1.4-1.7-1.8-2.7
			c-0.4-1.1-0.7-2.2-0.7-3.5c0-1.2,0.2-2.3,0.6-3.4c0.4-1,1-2,1.7-2.7c0.7-0.8,1.6-1.4,2.6-1.9c1-0.5,2.1-0.7,3.3-0.7
			c1.3,0,2.5,0.2,3.5,0.7c1,0.5,1.8,1.1,2.5,1.9c0.7,0.8,1.2,1.8,1.5,2.9c0.3,1.1,0.5,2.2,0.5,3.4c0,0.2,0,0.3,0,0.5
			c0,0.2,0,0.3,0,0.5H73.3C73.5,21.2,74,22.2,74.9,23z M81.7,17.3c-0.1-0.6-0.2-1.2-0.4-1.7c-0.2-0.5-0.5-1-0.8-1.4
			c-0.4-0.4-0.8-0.7-1.3-0.9c-0.5-0.2-1.1-0.3-1.7-0.3c-1.2,0-2.1,0.4-2.9,1.2c-0.8,0.8-1.2,1.9-1.4,3.2H81.7z"/>
		<path class="st0" d="M91.6,26.8h-3.8V10.2h3.8v3.7c0.5-1.3,1.3-2.3,2.2-3c1-0.8,2.2-1.1,3.6-1v4h-0.2c-0.8,0-1.6,0.1-2.3,0.4
			c-0.7,0.3-1.3,0.7-1.8,1.2c-0.5,0.5-0.9,1.2-1.2,2.1c-0.3,0.8-0.4,1.8-0.4,2.9V26.8z"/>
		<path class="st0" d="M99.4,10.2v11.7c0,0.6-0.2,1-0.5,1.2c-0.3,0.2-0.8,0.3-1.3,0.3c-0.3,0-0.7,0-1.1-0.1v3.4
			c0.3,0,0.6,0.1,0.9,0.1c0.3,0,0.6,0,1,0c1.6,0,2.8-0.3,3.6-0.9c0.8-0.6,1.2-1.6,1.2-2.9V10.2H99.4z"/>
		<path class="st0" d="M122.7,21.8c-0.5,1-1.1,2-1.9,2.7s-1.7,1.4-2.8,1.9c-1.1,0.5-2.3,0.7-3.5,0.7c-1.3,0-2.4-0.2-3.5-0.7
			c-1.1-0.4-2-1.1-2.8-1.9c-0.8-0.8-1.4-1.7-1.8-2.7c-0.4-1-0.7-2.2-0.7-3.3s0.2-2.3,0.7-3.4c0.4-1.1,1.1-2,1.9-2.8
			c0.8-0.8,1.7-1.4,2.8-1.9c1.1-0.5,2.3-0.7,3.5-0.7c1.3,0,2.5,0.2,3.5,0.7c1.1,0.5,2,1.1,2.8,1.9c0.8,0.8,1.4,1.7,1.8,2.7
			c0.4,1,0.7,2.2,0.7,3.4C123.3,19.7,123.1,20.8,122.7,21.8z M119.1,16.5c-0.2-0.6-0.6-1.2-1-1.7c-0.4-0.5-1-0.9-1.6-1.2
			c-0.6-0.3-1.3-0.4-2-0.4c-0.7,0-1.4,0.1-2,0.4c-0.6,0.3-1.1,0.7-1.6,1.1c-0.4,0.5-0.8,1-1,1.7c-0.2,0.6-0.3,1.3-0.3,2.1
			c0,0.7,0.1,1.4,0.4,2.1c0.2,0.7,0.6,1.2,1,1.7c0.4,0.5,1,0.9,1.6,1.1c0.6,0.3,1.3,0.4,2,0.4c0.8,0,1.5-0.1,2.1-0.4
			c0.6-0.3,1.1-0.7,1.6-1.1c0.4-0.5,0.8-1,1-1.7c0.2-0.6,0.3-1.3,0.3-2.1C119.5,17.8,119.4,17.1,119.1,16.5z"/>
		<path class="st0" d="M141.7,21.8c-0.5,1-1.1,2-1.9,2.7s-1.7,1.4-2.8,1.9c-1.1,0.5-2.3,0.7-3.5,0.7c-1.3,0-2.4-0.2-3.5-0.7
			c-1.1-0.4-2-1.1-2.8-1.9c-0.8-0.8-1.4-1.7-1.8-2.7c-0.4-1-0.7-2.2-0.7-3.3s0.2-2.3,0.7-3.4c0.4-1.1,1.1-2,1.9-2.8
			c0.8-0.8,1.7-1.4,2.8-1.9c1.1-0.5,2.3-0.7,3.5-0.7c1.3,0,2.5,0.2,3.5,0.7c1.1,0.5,2,1.1,2.8,1.9c0.8,0.8,1.4,1.7,1.8,2.7
			c0.4,1,0.7,2.2,0.7,3.4C142.4,19.7,142.2,20.8,141.7,21.8z M138.2,16.5c-0.2-0.6-0.6-1.2-1-1.7c-0.4-0.5-1-0.9-1.6-1.2
			c-0.6-0.3-1.3-0.4-2-0.4c-0.7,0-1.4,0.1-2,0.4c-0.6,0.3-1.1,0.7-1.6,1.1c-0.4,0.5-0.8,1-1,1.7c-0.2,0.6-0.3,1.3-0.3,2.1
			c0,0.7,0.1,1.4,0.4,2.1c0.2,0.7,0.6,1.2,1,1.7c0.4,0.5,1,0.9,1.6,1.1c0.6,0.3,1.3,0.4,2,0.4c0.8,0,1.5-0.1,2.1-0.4
			c0.6-0.3,1.1-0.7,1.6-1.1c0.4-0.5,0.8-1,1-1.7c0.2-0.6,0.3-1.3,0.3-2.1C138.6,17.8,138.4,17.1,138.2,16.5z"/>
	</g>
	<g>
		<path class="st1" d="M37.7,2.3c-1.2,0-2.3,0.3-3.3,0.9l0,0l0,0l-0.5,0.4l0,0l-4.2,2.9l-0.3,0.2c-0.8-2.5-3.2-4.3-6-4.3
			c-3.5,0-6.3,2.8-6.3,6.3v9.8c0,3.5,2.8,6.3,6.3,6.3c1.1,0,2.1-0.3,3-0.8l1-0.7l2.2-1.5l10.9-7.5l1.4-1c1.3-1.2,2.1-2.8,2.1-4.7
			C44.1,5.1,41.2,2.3,37.7,2.3z"/>
		<path class="st1" d="M37.6,34.8c-1.2,0-2.3-0.3-3.3-0.9l0,0l0,0l-0.5-0.4l0,0l-4.2-2.9l-0.3-0.2c-0.8,2.5-3.2,4.3-6,4.3
			c-3.5,0-6.3-2.8-6.3-6.3v-9.8c0-3.5,2.8-6.3,6.3-6.3c1.1,0,2.1,0.3,3,0.8l1,0.7l2.2,1.5l10.9,7.5l1.4,1l0,0
			c1.3,1.2,2.1,2.8,2.1,4.7C44,31.9,41.1,34.8,37.6,34.8z"/>
		<path class="st2" d="M29.4,28.6c0,3.4-2.8,6.2-6.2,6.2c-0.2,0-0.5,0-0.7,0c-3.1-0.3-5.5-3-5.5-6.1V8.5c0-3.2,2.5-5.9,5.6-6.1
			c0.2,0,0.4,0,0.5,0c3.4,0,6.2,2.8,6.2,6.2C29.4,8.7,29.4,28.4,29.4,28.6z"/>
		<circle class="st1" cx="8.6" cy="18.5" r="6.5"/>
	</g>
	<line class="st3" x1="44.4" y1="6.1" x2="44.4" y2="6.1"/>
</g>
</svg>
